<svg width="24" height="24" viewBox="0 0 24 24" fill="none" xmlns="http://www.w3.org/2000/svg">
<path d="M18.0536 2.25H5.94642C5.04933 2.24997 4.29844 2.24994 3.7018 2.3332C3.06879 2.42154 2.49988 2.61621 2.04568 3.08765C1.59525 3.55517 1.41279 4.13413 1.32944 4.77762C1.24996 5.39124 1.24998 6.16565 1.25 7.101V7.2025C1.24998 8.13786 1.24996 8.91229 1.32944 9.52592C1.41279 10.1694 1.59525 10.7484 2.04568 11.2159C2.22697 11.4041 2.43221 11.5536 2.66219 11.6696C3.032 11.8562 3.48304 11.7076 3.66961 11.3378C3.85619 10.968 3.70764 10.517 3.33782 10.3304C3.25424 10.2882 3.18679 10.2384 3.1259 10.1752C2.99054 10.0347 2.88011 9.82032 2.81701 9.33323C2.75148 8.82734 2.75 8.1508 2.75 7.15177C2.75 6.15274 2.75148 5.4762 2.81701 4.9703C2.88011 4.48321 2.99054 4.26887 3.1259 4.12838C3.25748 3.9918 3.45287 3.88248 3.90912 3.81881C4.38989 3.75172 5.03521 3.75 6 3.75L18 3.75C18.9648 3.75 19.6101 3.75172 20.0909 3.81881C20.5471 3.88248 20.7425 3.99181 20.8741 4.12838C21.0095 4.26887 21.1199 4.48321 21.183 4.97031C21.2485 5.4762 21.25 6.15274 21.25 7.15177C21.25 8.1508 21.2485 8.82734 21.183 9.33323C21.1199 9.82032 21.0095 10.0347 20.8741 10.1752C20.8132 10.2384 20.7458 10.2882 20.6622 10.3304C20.2924 10.517 20.1438 10.968 20.3304 11.3378C20.517 11.7076 20.968 11.8562 21.3378 11.6696C21.5678 11.5536 21.773 11.4041 21.9543 11.2159C22.4048 10.7484 22.5872 10.1694 22.6706 9.52592C22.75 8.91228 22.75 8.13786 22.75 7.20249V7.10105C22.75 6.16567 22.75 5.39125 22.6706 4.77762C22.5872 4.13413 22.4048 3.55517 21.9543 3.08765C21.5001 2.61622 20.9312 2.42154 20.2982 2.3332C19.7016 2.24994 18.9507 2.24997 18.0536 2.25Z" fill="white"/>
<path d="M15.75 16C15.75 15.5858 15.4142 15.25 15 15.25C14.5858 15.25 14.25 15.5858 14.25 16V17C14.25 17.4142 14.5858 17.75 15 17.75C15.4142 17.75 15.75 17.4142 15.75 17V16Z" fill="white"/>
<path fill-rule="evenodd" clip-rule="evenodd" d="M14.2587 6.25H9.7413C8.95657 6.24998 8.30095 6.24996 7.77242 6.31372C7.21462 6.381 6.70844 6.52767 6.26958 6.88478C5.82844 7.24375 5.58687 7.70821 5.41812 8.23807C5.25952 8.73605 5.1437 9.36653 5.00624 10.1148L4.31621 13.8705C4.02519 15.4544 3.79167 16.7253 3.75509 17.7322C3.71721 18.7751 3.88281 19.6749 4.52063 20.4154C5.15478 21.1515 6.02609 21.4631 7.07772 21.6087C8.09948 21.75 9.42398 21.75 11.0833 21.75H12.9166C14.576 21.75 15.9005 21.75 16.9222 21.6087C17.9739 21.4631 18.8452 21.1515 19.4793 20.4154C20.1171 19.6749 20.2827 18.7751 20.2449 17.7322C20.2083 16.7253 19.9748 15.4544 19.6837 13.8705L18.9937 10.1149C18.8563 9.36654 18.7404 8.73606 18.5818 8.23807C18.4131 7.70821 18.1715 7.24375 17.7304 6.88478C17.2915 6.52767 16.7853 6.381 16.2275 6.31372C15.699 6.24996 15.0434 6.24998 14.2587 6.25ZM7.21634 8.04825C7.35078 7.93885 7.543 7.85226 7.95206 7.80292C8.38018 7.75128 8.94471 7.75 9.78683 7.75H10.1654L8.82806 20.2315C8.2263 20.2148 7.71869 20.1831 7.28332 20.1228C6.39427 19.9998 5.94826 19.7744 5.6571 19.4364C5.36963 19.1027 5.22283 18.6477 5.2541 17.7866C5.28623 16.9023 5.49791 15.7396 5.80269 14.0808L6.47301 10.4324C6.62131 9.6252 6.72116 9.08957 6.84738 8.69327C6.96672 8.31856 7.08418 8.15579 7.21634 8.04825ZM10.3347 20.2493L11.6739 7.75H14.2131C15.0552 7.75 15.6198 7.75128 16.0479 7.80292C16.457 7.85226 16.6492 7.93885 16.7836 8.04825C16.9158 8.15579 17.0332 8.31856 17.1526 8.69327C17.2788 9.08957 17.3786 9.6252 17.5269 10.4324L18.1973 14.0808C18.502 15.7396 18.7137 16.9023 18.7459 17.7866C18.7771 18.6477 18.6303 19.1027 18.3429 19.4364C18.0517 19.7744 17.6057 19.9998 16.7166 20.1228C15.8098 20.2483 14.5895 20.25 12.8577 20.25H11.1422C10.8597 20.25 10.5909 20.25 10.3347 20.2493Z" fill="white"/>
</svg>
