<svg width="16" height="16" viewBox="0 0 16 16" fill="none" xmlns="http://www.w3.org/2000/svg">
<path d="M12.0357 1.5H3.96429C3.36623 1.49998 2.86564 1.49996 2.46788 1.55547C2.04587 1.61436 1.6666 1.74414 1.3638 2.05843C1.06351 2.37011 0.941872 2.75608 0.886304 3.18508C0.833314 3.59416 0.833328 4.11043 0.833344 4.734V4.80167C0.833328 5.42524 0.833314 5.94153 0.886303 6.35061C0.941872 6.77961 1.06351 7.16558 1.3638 7.47726C1.48466 7.6027 1.62148 7.70239 1.7748 7.77974C2.02134 7.90412 2.32204 7.80509 2.44642 7.55855C2.5708 7.312 2.47177 7.01131 2.22522 6.88693C2.16951 6.85882 2.12454 6.82557 2.08394 6.78344C1.99371 6.68977 1.92008 6.54688 1.87802 6.22215C1.83433 5.88489 1.83335 5.43386 1.83335 4.76785C1.83335 4.10183 1.83433 3.6508 1.87802 3.31354C1.92008 2.98881 1.99371 2.84592 2.08394 2.75225C2.17167 2.6612 2.30193 2.58832 2.60609 2.54587C2.9266 2.50114 3.35682 2.5 4.00001 2.5L12 2.5C12.6432 2.5 13.0734 2.50115 13.3939 2.54587C13.6981 2.58832 13.8284 2.6612 13.9161 2.75226C14.0063 2.84592 14.0799 2.98881 14.122 3.31354C14.1657 3.6508 14.1667 4.10183 14.1667 4.76785C14.1667 5.43386 14.1657 5.88489 14.122 6.22215C14.0799 6.54688 14.0063 6.68978 13.9161 6.78344C13.8755 6.82557 13.8305 6.85882 13.7748 6.88693C13.5283 7.01131 13.4292 7.31201 13.5536 7.55855C13.678 7.80509 13.9787 7.90412 14.2252 7.77974C14.3785 7.70239 14.5154 7.6027 14.6362 7.47726C14.9365 7.16558 15.0582 6.77961 15.1137 6.35061C15.1667 5.94152 15.1667 5.42524 15.1667 4.80166V4.73403C15.1667 4.11045 15.1667 3.59417 15.1137 3.18508C15.0582 2.75608 14.9365 2.37011 14.6362 2.05843C14.3334 1.74414 13.9542 1.61436 13.5321 1.55547C13.1344 1.49996 12.6338 1.49998 12.0357 1.5Z" fill="#0F172A"/>
<path d="M10.5 10.6667C10.5 10.3905 10.2762 10.1667 10 10.1667C9.72387 10.1667 9.50001 10.3905 9.50001 10.6667V11.3333C9.50001 11.6095 9.72387 11.8333 10 11.8333C10.2762 11.8333 10.5 11.6095 10.5 11.3333V10.6667Z" fill="#0F172A"/>
<path fill-rule="evenodd" clip-rule="evenodd" d="M9.50578 4.16667H6.49421C5.97106 4.16665 5.53398 4.16664 5.18162 4.20914C4.80976 4.254 4.4723 4.35178 4.17973 4.58986C3.88564 4.82917 3.72459 5.13881 3.61209 5.49205C3.50635 5.82404 3.42914 6.24436 3.33751 6.74323L2.87749 9.24701C2.68347 10.3029 2.52779 11.1502 2.5034 11.8214C2.47815 12.5167 2.58855 13.1166 3.01377 13.6102C3.43653 14.101 4.01741 14.3088 4.71849 14.4058C5.39966 14.5 6.28266 14.5 7.38891 14.5H8.61108C9.71733 14.5 10.6003 14.5 11.2815 14.4058C11.9826 14.3088 12.5635 14.101 12.9862 13.6102C13.4114 13.1166 13.5218 12.5167 13.4966 11.8214C13.4722 11.1502 13.3165 10.3029 13.1225 9.247L12.6625 6.74323C12.5708 6.24436 12.4936 5.82404 12.3879 5.49205C12.2754 5.13881 12.1144 4.82917 11.8203 4.58986C11.5277 4.35178 11.1902 4.254 10.8184 4.20914C10.466 4.16664 10.0289 4.16665 9.50578 4.16667ZM4.8109 5.3655C4.90053 5.29257 5.02868 5.23484 5.30138 5.20195C5.58679 5.16752 5.96315 5.16667 6.52456 5.16667H6.77692L5.88539 13.4876C5.48421 13.4765 5.14581 13.4554 4.85556 13.4152C4.26286 13.3332 3.96552 13.1829 3.77141 12.9576C3.57976 12.7351 3.48189 12.4318 3.50275 11.8577C3.52416 11.2682 3.66529 10.4931 3.86847 9.38719L4.31535 6.95491C4.41422 6.4168 4.48079 6.05972 4.56493 5.79551C4.64449 5.54571 4.7228 5.4372 4.8109 5.3655ZM6.88983 13.4996L7.78264 5.16667H9.47543C10.0368 5.16667 10.4132 5.16752 10.6986 5.20195C10.9713 5.23484 11.0995 5.29257 11.1891 5.3655C11.2772 5.4372 11.3555 5.54571 11.4351 5.79551C11.5192 6.05972 11.5858 6.4168 11.6846 6.95491L12.1315 9.38719C12.3347 10.4931 12.4758 11.2682 12.4972 11.8577C12.5181 12.4318 12.4202 12.7351 12.2286 12.9576C12.0345 13.1829 11.7371 13.3332 11.1444 13.4152C10.5399 13.4989 9.72633 13.5 8.57182 13.5H7.42817C7.23984 13.5 7.06059 13.5 6.88983 13.4996Z" fill="#0F172A"/>
</svg>
