<svg width="17" height="18" viewBox="0 0 17 18" fill="none" xmlns="http://www.w3.org/2000/svg">
<path fill-rule="evenodd" clip-rule="evenodd" d="M8.125 0C5.70875 0 3.75 1.95875 3.75 4.375C3.75 6.79125 5.70875 8.75 8.125 8.75C10.5412 8.75 12.5 6.79125 12.5 4.375C12.5 1.95875 10.5412 0 8.125 0ZM5 4.375C5 2.64911 6.39911 1.25 8.125 1.25C9.85089 1.25 11.25 2.64911 11.25 4.375C11.25 6.10089 9.85089 7.5 8.125 7.5C6.39911 7.5 5 6.10089 5 4.375Z" fill="#0F172A"/>
<path fill-rule="evenodd" clip-rule="evenodd" d="M13.3157 11.5243C13.1802 11.4479 13.0605 11.3803 12.9636 11.3226C10.0019 9.55912 6.24841 9.55912 3.2867 11.3226C3.18977 11.3804 3.07004 11.4479 2.93449 11.5244C2.34048 11.8595 1.44255 12.3661 0.827413 12.9682C0.44269 13.3448 0.077145 13.841 0.0106903 14.449C-0.0599819 15.0955 0.222071 15.7022 0.78792 16.2413C1.76413 17.1714 2.93561 17.9167 4.45087 17.9167H11.7994C13.3147 17.9167 14.4862 17.1714 15.4624 16.2413C16.0282 15.7022 16.3103 15.0955 16.2396 14.449C16.1731 13.841 15.8076 13.3448 15.4229 12.9682C14.8077 12.3661 13.9097 11.8595 13.3157 11.5243ZM3.92622 12.3967C6.49386 10.8678 9.75643 10.8678 12.3241 12.3967C12.464 12.48 12.6173 12.5669 12.7779 12.658C13.3717 12.9949 14.0651 13.3883 14.5485 13.8615C14.8486 14.1552 14.9765 14.3976 14.997 14.5848C15.0133 14.7334 14.9757 14.9785 14.6001 15.3363C13.7369 16.1587 12.8598 16.6667 11.7994 16.6667H4.45087C3.3905 16.6667 2.51335 16.1587 1.65014 15.3363C1.27462 14.9785 1.23704 14.7334 1.25329 14.5848C1.27375 14.3976 1.40168 14.1552 1.70179 13.8615C2.18519 13.3883 2.87855 12.995 3.47238 12.6581C3.63294 12.567 3.78633 12.48 3.92622 12.3967Z" fill="#0F172A"/>
</svg>
