<svg width="22" height="22" viewBox="0 0 22 22" fill="none" xmlns="http://www.w3.org/2000/svg">
<path d="M18.6248 3.6502L11.3244 1.1623C11.2363 1.13223 11.1182 1.11719 11 1.11719C10.8818 1.11719 10.7637 1.13223 10.6756 1.1623L3.3752 3.6502C3.19688 3.71035 3.05078 3.9166 3.05078 4.10566V14.4697C3.05078 14.6588 3.17324 14.908 3.32148 15.0262L10.7271 20.7969C10.8023 20.8549 10.899 20.885 10.9979 20.885C11.0967 20.885 11.1955 20.8549 11.2686 20.7969L18.6742 15.0262C18.8225 14.9102 18.9449 14.6609 18.9449 14.4697V4.10566C18.9492 3.9166 18.8031 3.7125 18.6248 3.6502ZM13.4664 11.9023C12.4244 12.9443 10.8238 13.0883 9.6293 12.3342L7.96426 13.9992C7.93195 14.0312 7.88833 14.0491 7.84287 14.0491C7.79741 14.0491 7.75379 14.0312 7.72148 13.9992L6.99102 13.2687C6.95903 13.2364 6.94109 13.1928 6.94109 13.1474C6.94109 13.1019 6.95903 13.0583 6.99102 13.026L8.65605 11.3609C7.90195 10.1643 8.0459 8.56582 9.08789 7.52383C10.2975 6.31426 12.2568 6.31426 13.4664 7.52383C14.676 8.7334 14.676 10.6928 13.4664 11.9023ZM10.0603 10.9297C10.2196 11.0916 10.4094 11.2203 10.6188 11.3085C10.8281 11.3966 11.0528 11.4424 11.2799 11.4433C11.5071 11.4442 11.7321 11.4001 11.9421 11.3136C12.1521 11.2271 12.3429 11.0999 12.5035 10.9392C12.6641 10.7786 12.7913 10.5878 12.8778 10.3778C12.9643 10.1678 13.0084 9.94273 13.0075 9.7156C13.0066 9.48847 12.9607 9.26377 12.8726 9.05445C12.7844 8.84512 12.6557 8.65533 12.4938 8.496C12.3345 8.33414 12.1447 8.20543 11.9353 8.11728C11.726 8.02913 11.5013 7.9833 11.2742 7.98241C11.047 7.98153 10.822 8.02562 10.612 8.11213C10.402 8.19865 10.2112 8.32588 10.0506 8.48649C9.88996 8.6471 9.76274 8.83792 9.67624 9.04794C9.58975 9.25795 9.54568 9.48301 9.54658 9.71014C9.54748 9.93727 9.59334 10.162 9.68151 10.3713C9.76967 10.5806 9.8984 10.7704 10.0603 10.9297Z" fill="#262626"/>
</svg>
