<svg width="12" height="12" viewBox="0 0 12 12" fill="none" xmlns="http://www.w3.org/2000/svg">
<path fill-rule="evenodd" clip-rule="evenodd" d="M3.09107 1.125C3.09973 1.125 3.10843 1.125 3.11715 1.125L8.90892 1.125C9.2942 1.12498 9.62128 1.12497 9.87933 1.16015C10.1525 1.19739 10.4136 1.28146 10.6136 1.50155C10.8153 1.72357 10.8705 1.99113 10.8747 2.26464C10.8787 2.52007 10.8378 2.83736 10.7902 3.20731L10.7868 3.23425C10.7699 3.36516 10.7447 3.49178 10.692 3.61855C10.6385 3.74726 10.5649 3.85689 10.4732 3.96583C9.98336 4.54777 9.07271 5.59945 7.79072 6.5572C7.76998 6.57269 7.74381 6.60941 7.73882 6.6645C7.61426 8.04096 7.50469 8.76923 7.42564 9.19116C7.34015 9.64742 6.99213 9.96318 6.69207 10.1806C6.53504 10.2944 6.36836 10.3969 6.2199 10.4872C6.208 10.4944 6.19625 10.5016 6.18464 10.5087C6.04596 10.593 5.92805 10.6647 5.8295 10.7344C5.55925 10.9255 5.24746 10.9121 5.00913 10.7732C4.78424 10.6422 4.62598 10.4033 4.59398 10.133C4.52375 9.53978 4.39643 8.37847 4.25588 6.66129C4.25137 6.60621 4.24277 6.59023 4.24205 6.5889C4.24156 6.58797 4.24029 6.58564 4.23609 6.58103C4.2314 6.57587 4.22201 6.56673 4.20417 6.55339C2.92476 5.59684 2.01591 4.547 1.52675 3.96581C1.4354 3.85727 1.3596 3.75026 1.30556 3.62011C1.25266 3.49271 1.2301 3.36544 1.21322 3.23425C1.21206 3.22523 1.2109 3.21625 1.20975 3.2073C1.16214 2.83736 1.12131 2.52006 1.12527 2.26464C1.1295 1.99113 1.18471 1.72357 1.3864 1.50155C1.58634 1.28146 1.84751 1.19739 2.12065 1.16015C2.3787 1.12497 2.70578 1.12498 3.09107 1.125ZM2.22197 1.90328C2.02992 1.92946 1.97207 1.97225 1.94154 2.00586C1.91276 2.03754 1.87801 2.09333 1.87518 2.27624C1.87216 2.47106 1.90506 2.73406 1.95709 3.13856C1.97155 3.25096 1.98422 3.29877 1.99821 3.33248C2.01108 3.36345 2.03387 3.40361 2.10057 3.48286C2.57971 4.05216 3.44423 5.04878 4.65327 5.95271C4.7504 6.02533 4.83952 6.11524 4.904 6.2363C4.96752 6.35558 4.99352 6.47968 5.00338 6.60011C5.14316 8.30791 5.26957 9.46022 5.33878 10.0448C5.34089 10.0626 5.34738 10.0802 5.35737 10.0955C5.36759 10.1112 5.37894 10.1207 5.38667 10.1252C5.38765 10.1257 5.38851 10.1262 5.38926 10.1266C5.39104 10.1256 5.39344 10.1241 5.39649 10.122C5.51754 10.0364 5.65805 9.95102 5.79067 9.87043C5.80387 9.86241 5.81699 9.85444 5.83001 9.84652C5.97941 9.75559 6.1223 9.66727 6.25201 9.57328C6.52541 9.37517 6.65952 9.20754 6.68846 9.05304C6.7617 8.66213 6.86861 7.95904 6.99187 6.5969C7.01446 6.34733 7.13698 6.1094 7.34184 5.95635C8.55335 5.05127 9.41962 4.05286 9.89941 3.48285C9.9576 3.41372 9.98347 3.36915 9.9994 3.3308C10.0161 3.29051 10.0302 3.2372 10.0429 3.13856C10.0949 2.73406 10.1278 2.47106 10.1248 2.27625C10.122 2.09333 10.0872 2.03754 10.0584 2.00586C10.0279 1.97225 9.97006 1.92946 9.77801 1.90328C9.57668 1.87583 9.30135 1.875 8.88283 1.875H3.11715C2.69863 1.875 2.4233 1.87583 2.22197 1.90328ZM5.38533 10.1283C5.38535 10.1283 5.38559 10.1282 5.38605 10.1281L5.38533 10.1283Z" fill="white"/>
</svg>
