<svg width="52" height="34" viewBox="0 0 52 34" fill="none" xmlns="http://www.w3.org/2000/svg">
<g clip-path="url(#clip0_344_980)">
<path d="M50.6402 32.2532C50.6402 32.4513 50.5615 32.6412 50.4214 32.7813C50.2814 32.9213 50.0914 33 49.8934 33H1.74682C1.54875 33 1.3588 32.9213 1.21874 32.7813C1.07868 32.6412 1 32.4513 1 32.2532L1 1.83191C0.999992 1.73428 1.01937 1.63762 1.05702 1.54753C1.09467 1.45745 1.14983 1.37574 1.2193 1.30714C1.28878 1.23855 1.37118 1.18443 1.46174 1.14794C1.5523 1.11144 1.6492 1.09329 1.74682 1.09454H49.8934C49.991 1.09329 50.0879 1.11144 50.1784 1.14794C50.269 1.18443 50.3514 1.23855 50.4209 1.30714C50.4904 1.37574 50.5455 1.45745 50.5832 1.54753C50.6208 1.63762 50.6402 1.73428 50.6402 1.83191V32.2532Z" fill="#22307E"/>
<path d="M8.93152 4.961H19.4438" stroke="white" stroke-width="0.021743"/>
<path d="M8.93152 9.6499H16.9859" stroke="white" stroke-width="0.021743"/>
<path d="M8.93152 14.2349H16.05" stroke="white" stroke-width="0.021743"/>
<path d="M8.93152 18.8576H17.6854" stroke="white" stroke-width="0.021743"/>
<path d="M42.1132 4.68683H31.601" stroke="white" stroke-width="0.021743"/>
<path d="M42.1131 9.37579H34.0682" stroke="white" stroke-width="0.021743"/>
<path d="M42.1132 13.9607H34.9948" stroke="white" stroke-width="0.021743"/>
<path d="M42.1131 18.5834H33.3687" stroke="white" stroke-width="0.021743"/>
<path d="M27.0822 1C23.3859 1.48213 17.1182 6.26558 17.3924 15.1046C17.4018 16.343 18.593 19.0845 19.8881 20.1905C20.6916 21.2304 23.9814 23.3764 25.2766 22.2325C25.2766 22.2325 25.8123 21.7807 26.1054 21.7807C26.1054 21.7807 24.8133 20.5387 24.3612 19.2574C24.3612 19.2574 23.6317 17.2411 23.4331 16.3997C23.3481 16.1728 22.8943 12.8925 23.764 12.1267C23.8585 12.0322 23.8775 11.4934 23.3197 11.3988C23.3197 11.3988 22.658 11.1719 22.5823 10.7938C22.5587 10.6961 22.5567 10.5945 22.5764 10.496C22.5961 10.3974 22.6372 10.3044 22.6966 10.2234C22.756 10.1424 22.8324 10.0753 22.9204 10.0269C23.0085 9.97843 23.106 9.9498 23.2063 9.94298C23.471 9.86736 23.4993 9.35687 23.1306 9.20561C22.951 9.13944 22.4122 8.77075 22.7808 8.10901C22.8376 7.98611 23.3764 7.64579 23.8018 7.61743C24.0287 7.5418 23.9531 7.10694 23.6789 7.04077C23.4048 6.97459 22.8659 6.9935 22.9321 6.40739C22.9321 6.22777 22.9037 5.64165 23.9247 5.70783C24.0287 5.70783 24.3785 4.961 23.9531 4.73412C23.8018 4.64904 24.0854 3.23102 25.4373 3.46736C25.5318 3.48626 25.7303 3.53353 25.8154 3.30665C25.8816 2.86233 27.0916 1.16071 27.933 1.05672L27.0822 1Z" fill="white"/>
<path d="M33.9273 13.9429C33.9041 7.7757 29.7251 3.21985 27.6384 1.71282C27.2855 1.44416 26.1604 2.64022 26.1024 3.53864C26.0445 4.43706 26.5371 4.49502 26.3053 4.95872C26.0734 5.42242 25.1171 5.04566 25.1171 5.65427C25.1171 6.26287 25.8416 6.29186 25.7546 6.8425C25.6677 7.39314 24.6823 7.21925 24.6823 7.53805C24.6823 7.79308 25.1654 8.16597 25.4069 8.32054C25.5228 8.55239 25.6677 9.24794 25.1171 9.24794C24.6765 9.24794 24.6437 9.65367 24.6823 9.85654C26.5371 10.755 24.6823 11.4795 24.3056 11.6534C22.6536 15.7977 25.2909 20.5796 26.5371 21.42C27.7833 22.2605 33.9563 21.6519 33.9273 13.9429Z" fill="url(#paint0_linear_344_980)"/>
<path d="M9.75397 27.0348H11.985C12.0039 26.496 11.4272 25.3899 10.3023 25.2954C10.1794 25.2765 7.33388 24.9173 5.65116 25.5885C3.96844 26.2596 3.63757 27.3562 3.855 28.6325C4.07243 29.1713 4.59237 30.3152 6.77613 30.4759C6.77613 30.4759 10.1037 30.8162 11.985 30.0789V27.4697H8.18469V28.5757H9.90522V29.2942C8.79917 29.2659 7.15426 29.7196 6.20892 28.519C6.01039 28.3394 5.67007 27.2523 6.52088 26.6567C7.05973 26.1273 9.79178 26.0422 9.76342 26.8741L9.75397 27.0348Z" fill="white"/>
<path d="M14.8682 25.3805H12.6372V30.4797H14.8682V25.3805Z" fill="white"/>
<path d="M15.5111 30.4665V25.3333H18.7347L20.8996 28.9161L22.9415 25.3711H48.2012V30.4665H24.1421L24.1138 26.5717L21.8922 30.457H19.6801L17.3356 26.6662L17.3451 30.4665H15.5111Z" fill="white"/>
<path d="M25.6831 26.9781V28.6703C25.6831 28.6703 25.6169 29.6157 26.7797 29.6157H28.9256C29.3132 29.54 29.871 29.3699 29.871 28.6703V26.9781H28.5853V28.6514C28.4718 29.2186 26.9498 29.1997 26.9498 28.6514V26.9781H25.6831Z" fill="#22307E"/>
<path d="M30.0033 26.9781V29.6062H33.0946V29.0201H31.0999V28.538H33.1135V27.9424H31.1661V27.4792H33.1324V26.9781H30.0033Z" fill="#22307E"/>
<path d="M33.4254 26.9781V29.6157H34.4086V27.5548L35.5241 29.6157H36.668L37.8118 27.5454V29.6157H38.8423V26.9781H37.1028L36.1007 28.6703L35.0892 26.9781H33.4254Z" fill="#22307E"/>
<path d="M43.3232 28.2071C43.3232 28.9728 42.359 29.5873 41.1678 29.5873C39.9767 29.5873 39.0125 28.9728 39.0125 28.2071C39.0125 27.4414 39.9767 26.8269 41.1678 26.8269C42.359 26.8269 43.3232 27.4414 43.3232 28.2071Z" fill="#22307E"/>
<path d="M42.1604 28.1976C42.1604 28.6514 41.6783 29.0201 41.0922 29.0201C40.5061 29.0201 40.0239 28.6514 40.0239 28.1976C40.0239 27.7439 40.5061 27.3752 41.0922 27.3752C41.6783 27.3752 42.1604 27.7439 42.1604 28.1976Z" fill="white"/>
<path d="M42.7843 29.6156L44.6845 26.9308H46.1876L48.1066 29.5873H46.6602L46.3577 28.9255H44.363L43.9471 29.6156H42.7843Z" fill="#22307E"/>
<path d="M44.5994 28.4907H46.1497L45.3367 27.4224L44.5994 28.4907Z" fill="white"/>
<path d="M5.53762 14.0269C5.53575 14.3619 5.6334 14.69 5.8182 14.9695C6.003 15.2491 6.26662 15.4674 6.57565 15.5969C6.88469 15.7265 7.22522 15.7613 7.55409 15.6971C7.88296 15.6329 8.18536 15.4725 8.42296 15.2362C8.66056 14.9999 8.82266 14.6984 8.88873 14.3699C8.95479 14.0414 8.92184 13.7007 8.79404 13.3909C8.66625 13.0812 8.44937 12.8164 8.17089 12.63C7.89241 12.4436 7.56488 12.3441 7.2298 12.3441C7.00802 12.3429 6.78819 12.3855 6.58294 12.4695C6.37769 12.5535 6.19108 12.6773 6.03382 12.8336C5.87656 12.99 5.75177 13.1759 5.66661 13.3807C5.58146 13.5855 5.53762 13.8051 5.53762 14.0269Z" fill="url(#paint1_radial_344_980)" stroke="white" stroke-width="0.00756278"/>
<path d="M5.53772 9.3663C5.53772 9.70098 5.63696 10.0281 5.8229 10.3064C6.00884 10.5847 6.27312 10.8016 6.58233 10.9297C6.89153 11.0577 7.23177 11.0913 7.56002 11.026C7.88827 10.9607 8.18978 10.7995 8.42644 10.5629C8.66309 10.3262 8.82426 10.0247 8.88955 9.69643C8.95484 9.36818 8.92133 9.02794 8.79325 8.71874C8.66518 8.40953 8.44829 8.14525 8.17001 7.95932C7.89174 7.77338 7.56457 7.67413 7.22989 7.67413C6.7811 7.67413 6.35069 7.85242 6.03335 8.16976C5.716 8.4871 5.53772 8.91751 5.53772 9.3663Z" fill="url(#paint2_radial_344_980)" stroke="white" stroke-width="0.00756278"/>
<path d="M5.53762 4.69633C5.53575 5.0314 5.6334 5.35949 5.8182 5.63901C6.003 5.91853 6.26662 6.13689 6.57565 6.26641C6.88469 6.39594 7.22522 6.4308 7.55409 6.36658C7.88296 6.30236 8.18536 6.14195 8.42296 5.90567C8.66056 5.6694 8.82266 5.36791 8.88873 5.0394C8.95479 4.7109 8.92184 4.37017 8.79404 4.06042C8.66625 3.75066 8.44937 3.48582 8.17089 3.29946C7.89241 3.1131 7.56488 3.01362 7.2298 3.01361C6.78264 3.0136 6.35365 3.19059 6.03658 3.50589C5.71951 3.82119 5.54012 4.24918 5.53762 4.69633Z" fill="url(#paint3_radial_344_980)" stroke="white" stroke-width="0.00756278"/>
<path d="M5.53772 18.6969C5.53772 19.0316 5.63696 19.3587 5.8229 19.637C6.00884 19.9153 6.27312 20.1322 6.58233 20.2602C6.89153 20.3883 7.23177 20.4218 7.56002 20.3565C7.88827 20.2912 8.18978 20.1301 8.42644 19.8934C8.66309 19.6568 8.82426 19.3552 8.88955 19.027C8.95484 18.6987 8.92133 18.3585 8.79325 18.0493C8.66518 17.7401 8.44829 17.4758 8.17001 17.2899C7.89174 17.1039 7.56457 17.0047 7.22989 17.0047C6.7811 17.0047 6.35069 17.183 6.03335 17.5003C5.716 17.8177 5.53772 18.2481 5.53772 18.6969Z" fill="url(#paint4_radial_344_980)" stroke="white" stroke-width="0.00756278"/>
<path d="M41.9903 14.0269C41.9884 14.3619 42.086 14.69 42.2708 14.9695C42.4556 15.2491 42.7193 15.4674 43.0283 15.5969C43.3373 15.7265 43.6779 15.7613 44.0067 15.6971C44.3356 15.6329 44.638 15.4725 44.8756 15.2362C45.1132 14.9999 45.2753 14.6984 45.3414 14.3699C45.4074 14.0414 45.3745 13.7007 45.2467 13.3909C45.1189 13.0812 44.902 12.8164 44.6235 12.63C44.345 12.4436 44.0175 12.3441 43.6824 12.3441C43.4607 12.3429 43.2408 12.3855 43.0356 12.4695C42.8303 12.5535 42.6437 12.6773 42.4865 12.8336C42.3292 12.99 42.2044 13.1759 42.1192 13.3807C42.0341 13.5855 41.9903 13.8051 41.9903 14.0269Z" fill="url(#paint5_radial_344_980)" stroke="white" stroke-width="0.00756278"/>
<path d="M41.9902 9.3663C41.9902 9.70098 42.0895 10.0281 42.2754 10.3064C42.4614 10.5847 42.7256 10.8016 43.0348 10.9297C43.344 11.0577 43.6843 11.0913 44.0125 11.026C44.3408 10.9607 44.6423 10.7995 44.879 10.5629C45.1156 10.3262 45.2768 10.0247 45.3421 9.69643C45.4074 9.36818 45.3738 9.02794 45.2458 8.71874C45.1177 8.40953 44.9008 8.14525 44.6225 7.95932C44.3442 7.77338 44.0171 7.67413 43.6824 7.67413C43.2336 7.67413 42.8032 7.85242 42.4859 8.16976C42.1685 8.4871 41.9902 8.91751 41.9902 9.3663Z" fill="url(#paint6_radial_344_980)" stroke="white" stroke-width="0.00756278"/>
<path d="M41.9903 4.69633C41.9884 5.0314 42.086 5.35949 42.2708 5.63901C42.4556 5.91853 42.7193 6.13689 43.0283 6.26641C43.3373 6.39594 43.6779 6.4308 44.0067 6.36658C44.3356 6.30236 44.638 6.14195 44.8756 5.90567C45.1132 5.6694 45.2753 5.36791 45.3414 5.0394C45.4074 4.7109 45.3745 4.37017 45.2467 4.06042C45.1189 3.75066 44.902 3.48582 44.6235 3.29946C44.345 3.1131 44.0175 3.01362 43.6824 3.01361C43.2353 3.0136 42.8063 3.19059 42.4892 3.50589C42.1721 3.82119 41.9928 4.24918 41.9903 4.69633Z" fill="url(#paint7_radial_344_980)" stroke="white" stroke-width="0.00756278"/>
<path d="M41.9902 18.6969C41.9902 19.0316 42.0895 19.3587 42.2754 19.637C42.4614 19.9153 42.7256 20.1322 43.0348 20.2602C43.344 20.3883 43.6843 20.4218 44.0125 20.3565C44.3408 20.2912 44.6423 20.1301 44.879 19.8934C45.1156 19.6568 45.2768 19.3552 45.3421 19.027C45.4074 18.6987 45.3738 18.3585 45.2458 18.0493C45.1177 17.7401 44.9008 17.4758 44.6225 17.2899C44.3442 17.1039 44.0171 17.0047 43.6824 17.0047C43.2336 17.0047 42.8032 17.183 42.4859 17.5003C42.1685 17.8177 41.9902 18.2481 41.9902 18.6969Z" fill="url(#paint8_radial_344_980)" stroke="white" stroke-width="0.00756278"/>
</g>
<rect x="0.5" y="0.5" width="50.6402" height="33" rx="2.5" stroke="white"/>
<defs>
<linearGradient id="paint0_linear_344_980" x1="34.1302" y1="11.9142" x2="24.1317" y2="12.233" gradientUnits="userSpaceOnUse">
<stop stop-color="#F6C867"/>
<stop offset="0.245513" stop-color="#FCF0DA"/>
<stop offset="0.47728" stop-color="#FDF6EA"/>
<stop offset="0.938479" stop-color="#F6C867"/>
</linearGradient>
<radialGradient id="paint1_radial_344_980" cx="0" cy="0" r="1" gradientUnits="userSpaceOnUse" gradientTransform="translate(6.56144 14.0845) scale(1.74228)">
<stop offset="0.2" stop-color="white"/>
<stop offset="1" stop-color="#F5C665"/>
</radialGradient>
<radialGradient id="paint2_radial_344_980" cx="0" cy="0" r="1" gradientUnits="userSpaceOnUse" gradientTransform="translate(6.56153 9.41924) scale(1.74228)">
<stop offset="0.2" stop-color="white"/>
<stop offset="1" stop-color="#F5C665"/>
</radialGradient>
<radialGradient id="paint3_radial_344_980" cx="0" cy="0" r="1" gradientUnits="userSpaceOnUse" gradientTransform="translate(6.56144 4.75399) scale(1.74228)">
<stop offset="0.2" stop-color="white"/>
<stop offset="1" stop-color="#F5C665"/>
</radialGradient>
<radialGradient id="paint4_radial_344_980" cx="0" cy="0" r="1" gradientUnits="userSpaceOnUse" gradientTransform="translate(6.56153 18.7508) scale(1.74228)">
<stop offset="0.2" stop-color="white"/>
<stop offset="1" stop-color="#F5C665"/>
</radialGradient>
<radialGradient id="paint5_radial_344_980" cx="0" cy="0" r="1" gradientUnits="userSpaceOnUse" gradientTransform="translate(44.0738 14.0221) scale(1.61749)">
<stop offset="0.2" stop-color="white"/>
<stop offset="1" stop-color="#F5C665"/>
</radialGradient>
<radialGradient id="paint6_radial_344_980" cx="0" cy="0" r="1" gradientUnits="userSpaceOnUse" gradientTransform="translate(44.0738 9.35685) scale(1.61749)">
<stop offset="0.2" stop-color="white"/>
<stop offset="1" stop-color="#F5C665"/>
</radialGradient>
<radialGradient id="paint7_radial_344_980" cx="0" cy="0" r="1" gradientUnits="userSpaceOnUse" gradientTransform="translate(44.0738 4.6916) scale(1.61749)">
<stop offset="0.2" stop-color="white"/>
<stop offset="1" stop-color="#F5C665"/>
</radialGradient>
<radialGradient id="paint8_radial_344_980" cx="0" cy="0" r="1" gradientUnits="userSpaceOnUse" gradientTransform="translate(44.0738 18.6884) scale(1.61749)">
<stop offset="0.2" stop-color="white"/>
<stop offset="1" stop-color="#F5C665"/>
</radialGradient>
<clipPath id="clip0_344_980">
<rect x="1" y="1" width="49.6402" height="32" rx="2" fill="white"/>
</clipPath>
</defs>
</svg>
