<svg width="18" height="18" viewBox="0 0 18 18" fill="none" xmlns="http://www.w3.org/2000/svg">
<path fill-rule="evenodd" clip-rule="evenodd" d="M4.86325 2.48374C4.17051 2.86547 3.42942 3.27384 2.66872 3.51625C2.26895 3.64364 1.9987 3.7301 1.80664 3.80526C1.67993 3.85485 1.62495 3.88617 1.6073 3.89652C1.60069 3.90979 1.5892 3.93723 1.5745 3.98868C1.5421 4.10206 1.5131 4.25862 1.4645 4.52782C1.34519 5.18871 1.27379 5.84178 1.24956 6.48197C1.23651 6.8269 0.946303 7.09594 0.601372 7.08289C0.256441 7.06983 -0.0125984 6.77963 0.000455651 6.4347C0.0269763 5.73394 0.104995 5.02245 0.234383 4.30574L0.23899 4.28021C0.28136 4.04538 0.32093 3.82606 0.372611 3.64522C0.429554 3.44596 0.51543 3.23768 0.682524 3.05221C0.868469 2.84581 1.13051 2.72756 1.35107 2.64123C1.58543 2.54951 1.89477 2.45094 2.26801 2.33201L2.28919 2.32526C2.92474 2.12273 3.50349 1.80386 4.1564 1.44414C4.42319 1.29714 4.70243 1.1433 5.00293 0.987811C5.99757 0.473156 7.13778 0 8.54021 0C9.94265 0 11.0833 0.473166 12.0785 0.987804C12.3791 1.14326 12.6584 1.29705 12.9253 1.44403C13.5787 1.80381 14.1579 2.12276 14.7938 2.3253L14.815 2.33204C15.1882 2.4509 15.4976 2.54944 15.7319 2.64112C15.9525 2.72742 16.2145 2.84564 16.4005 3.05203C16.5676 3.23751 16.6535 3.4458 16.7105 3.64508C16.7622 3.82596 16.8018 4.04531 16.8442 4.2802L16.8488 4.3057C16.9782 5.02239 17.0563 5.73387 17.0829 6.43462C17.096 6.77955 16.827 7.06979 16.4821 7.08288C16.1371 7.09598 15.8469 6.82698 15.8338 6.48205C15.8095 5.84184 15.738 5.18875 15.6187 4.52784C15.5701 4.2586 15.541 4.10201 15.5086 3.98861C15.4939 3.93714 15.4824 3.9097 15.4758 3.89642C15.4582 3.88607 15.4032 3.85477 15.2765 3.8052C15.0845 3.73007 14.8142 3.64367 14.4145 3.51634C13.6535 3.27396 12.912 2.8656 12.2188 2.48385C11.9742 2.34916 11.7355 2.21772 11.5043 2.09812C10.5762 1.61814 9.64745 1.25 8.54021 1.25C7.43305 1.25 6.50486 1.61809 5.57737 2.098C5.3462 2.21762 5.10773 2.34902 4.86325 2.48374Z" fill="#0F172A"/>
<path d="M1.81556 13.4667C1.62686 13.1777 1.70818 12.7904 1.99721 12.6017C2.28624 12.413 2.67352 12.4943 2.86223 12.7833C3.88907 14.3561 5.40646 15.6185 7.42185 16.3891C7.97619 16.6011 8.15848 16.6667 8.54294 16.6667C8.92741 16.6667 9.10968 16.6011 9.66398 16.3891C11.6792 15.6185 13.1961 14.3561 14.2225 12.7834C14.4111 12.4944 14.7984 12.413 15.0875 12.6016C15.3765 12.7903 15.4579 13.1775 15.2693 13.4666C14.0956 15.265 12.3662 16.694 10.1105 17.5567L10.0831 17.5671C9.54093 17.7745 9.16935 17.9167 8.54296 17.9167C7.91655 17.9167 7.54495 17.7745 7.00277 17.5671L6.9754 17.5567C4.71953 16.6941 2.9897 15.265 1.81556 13.4667Z" fill="#0F172A"/>
<path d="M5.18306 8.51639C5.42714 8.27231 5.82286 8.27231 6.06694 8.51639L6.45833 8.90778L6.84972 8.51639C7.0938 8.27231 7.48953 8.27231 7.73361 8.51639C7.97769 8.76047 7.97769 9.1562 7.73361 9.40028L7.34222 9.79167L7.73361 10.1831C7.97769 10.4271 7.97769 10.8229 7.73361 11.0669C7.48953 11.311 7.0938 11.311 6.84972 11.0669L6.45833 10.6756L6.06694 11.0669C5.82286 11.311 5.42714 11.311 5.18306 11.0669C4.93898 10.8229 4.93898 10.4271 5.18306 10.1831L5.57445 9.79167L5.18306 9.40028C4.93898 9.1562 4.93898 8.76047 5.18306 8.51639Z" fill="#0F172A"/>
<path d="M1.90028 8.51639C1.6562 8.27231 1.26047 8.27231 1.01639 8.51639C0.772314 8.76047 0.772314 9.1562 1.01639 9.40028L1.40778 9.79167L1.01639 10.1831C0.772314 10.4271 0.772314 10.8229 1.01639 11.0669C1.26047 11.311 1.6562 11.311 1.90028 11.0669L2.29167 10.6756L2.68306 11.0669C2.92714 11.311 3.32286 11.311 3.56694 11.0669C3.81102 10.8229 3.81102 10.4271 3.56694 10.1831L3.17555 9.79167L3.56694 9.40028C3.81102 9.1562 3.81102 8.76047 3.56694 8.51639C3.32286 8.27231 2.92714 8.27231 2.68306 8.51639L2.29167 8.90778L1.90028 8.51639Z" fill="#0F172A"/>
<path d="M9.34973 8.51639C9.5938 8.27231 9.98953 8.27231 10.2336 8.51639L10.625 8.90778L11.0164 8.51639C11.2605 8.27231 11.6562 8.27231 11.9003 8.51639C12.1444 8.76047 12.1444 9.1562 11.9003 9.40028L11.5089 9.79167L11.9003 10.1831C12.1444 10.4271 12.1444 10.8229 11.9003 11.0669C11.6562 11.311 11.2605 11.311 11.0164 11.0669L10.625 10.6756L10.2336 11.0669C9.98953 11.311 9.5938 11.311 9.34973 11.0669C9.10565 10.8229 9.10565 10.4271 9.34973 10.1831L9.74112 9.79167L9.34973 9.40028C9.10565 9.1562 9.10565 8.76047 9.34973 8.51639Z" fill="#0F172A"/>
<path d="M14.4003 8.51639C14.1562 8.27231 13.7605 8.27231 13.5164 8.51639C13.2723 8.76047 13.2723 9.1562 13.5164 9.40028L13.9078 9.79167L13.5164 10.1831C13.2723 10.4271 13.2723 10.8229 13.5164 11.0669C13.7605 11.311 14.1562 11.311 14.4003 11.0669L14.7917 10.6756L15.1831 11.0669C15.4271 11.311 15.8229 11.311 16.0669 11.0669C16.311 10.8229 16.311 10.4271 16.0669 10.1831L15.6756 9.79167L16.0669 9.40028C16.311 9.1562 16.311 8.76047 16.0669 8.51639C15.8229 8.27231 15.4271 8.27231 15.1831 8.51639L14.7917 8.90778L14.4003 8.51639Z" fill="#0F172A"/>
</svg>
