<svg width="133" height="36" viewBox="0 0 133 36" fill="none" xmlns="http://www.w3.org/2000/svg">
<g id="Group">
<path id="Vector" d="M0.473633 27.2671L5.96325 1.47229H17.981C19.6131 1.47229 21.012 1.79022 22.2413 2.44728C23.4495 3.10434 24.4033 3.99455 25.1027 5.1391C25.781 6.28365 26.1413 7.59777 26.1413 9.10264C26.1413 10.7559 25.6962 12.2396 24.8272 13.5961C23.9582 14.9526 22.7712 16.0123 21.3087 16.8178C19.825 17.6232 18.193 18.0259 16.3702 18.0259H8.63387L6.68389 27.2671H0.473633ZM9.75722 12.7906H16.243C16.9213 12.7906 17.5359 12.6423 18.0658 12.3667C18.5957 12.0912 19.0196 11.7097 19.3164 11.2222C19.6131 10.7347 19.7827 10.2048 19.7827 9.61133C19.7827 8.78471 19.5283 8.10646 18.9984 7.61896C18.4685 7.13147 17.7691 6.87712 16.8789 6.87712H11.0289L9.75722 12.7906Z" fill="white"/>
<path id="Vector_2" d="M31.6308 27.4578C29.6173 27.4578 28.0064 26.9703 26.8195 25.9741C25.6325 24.9991 25.0391 23.685 25.0391 22.0318C25.0391 20.6753 25.3782 19.5307 26.0352 18.5769C26.6923 17.6231 27.6461 16.8813 28.8966 16.3726C30.1472 15.8639 31.6096 15.5884 33.3477 15.5884C34.1743 15.5884 35.0221 15.652 35.8699 15.8003C36.7177 15.9275 37.5444 16.1183 38.3286 16.3726L38.4346 15.8215C38.6889 14.677 38.4982 13.808 37.8623 13.2145C37.2264 12.6422 36.1879 12.3455 34.7042 12.3455C34.0471 12.3455 33.2841 12.4303 32.4363 12.621C31.5884 12.8118 30.5499 13.1085 29.3205 13.5324L27.9216 9.10258C29.4265 8.53031 30.8466 8.12759 32.2031 7.85205C33.5596 7.57651 34.8313 7.44934 36.0395 7.44934C38.0954 7.44934 39.8123 7.78847 41.1476 8.44553C42.4829 9.10258 43.4367 10.0564 43.9666 11.3069C44.4965 12.5574 44.6024 14.0411 44.2209 15.7791L41.7834 27.2883H35.9971L36.209 26.2285C35.446 26.6736 34.7042 26.9915 33.9623 27.1823C33.1993 27.3518 32.4363 27.4578 31.6308 27.4578ZM33.7292 23.3247C34.3227 23.3247 34.8737 23.2611 35.4248 23.1128C35.9547 22.9856 36.4846 22.7948 36.9721 22.5405L37.5232 19.997C36.2938 19.5943 35.0857 19.4036 33.8775 19.4036C32.8178 19.4036 32.0124 19.5943 31.4189 19.9546C30.8466 20.315 30.5499 20.8448 30.5499 21.5443C30.5499 22.0954 30.8254 22.5193 31.3977 22.8372C31.97 23.1551 32.733 23.3247 33.7292 23.3247Z" fill="white"/>
<path id="Vector_3" d="M46.3195 35.1519C45.7048 35.1519 45.1325 35.1095 44.5814 35.0459C44.0304 34.9823 43.5217 34.8763 43.0342 34.7491L44.094 29.7046C44.3483 29.7682 44.6238 29.8318 44.9206 29.8742C45.2173 29.9166 45.5776 29.9378 45.9803 29.9378C46.8706 29.9378 47.6548 29.747 48.333 29.3867C49.0113 29.0264 49.6048 28.4329 50.0711 27.6487L50.283 27.2884L47.0825 7.78857H53.314L55.0096 20.5482L62.7459 7.78857H69.1257L55.6031 29.3231C54.3101 31.4215 52.9324 32.9051 51.47 33.8165C50.0287 34.7068 48.3118 35.1519 46.3195 35.1519Z" fill="white"/>
<path id="Vector_4" d="M76.7986 27.6699C74.9334 27.6699 73.153 27.3731 71.4573 26.8008C69.7617 26.2286 68.3416 25.4443 67.2183 24.4694L70.4612 20.633C71.5633 21.502 72.6443 22.1379 73.6829 22.5618C74.7214 22.9857 75.7812 23.1976 76.841 23.1976C77.71 23.1976 78.3883 23.0493 78.8969 22.7525C79.4056 22.4558 79.6812 22.0743 79.6812 21.608C79.6812 21.2688 79.5328 20.9721 79.2361 20.7602C78.9393 20.5482 78.5154 20.3574 77.9432 20.2515L74.2128 19.446C72.6231 19.1069 71.3938 18.4499 70.5248 17.5173C69.6557 16.5635 69.2318 15.3977 69.2318 13.9988C69.2318 12.6423 69.5498 11.4766 70.1856 10.5228C70.8215 9.54778 71.7329 8.80594 72.941 8.27605C74.128 7.74617 75.5481 7.49182 77.2013 7.49182C78.8334 7.49182 80.3806 7.74617 81.8855 8.27605C83.3904 8.78474 84.7045 9.52658 85.8279 10.4592L82.6273 14.0624C81.6523 13.3418 80.6562 12.8119 79.6812 12.4304C78.7062 12.07 77.7312 11.8793 76.7986 11.8793C76.0568 11.8793 75.4845 12.0064 75.0606 12.2396C74.6367 12.4939 74.4247 12.8331 74.4247 13.2994C74.4247 13.6597 74.5731 13.9776 74.891 14.2108C75.1877 14.4439 75.7176 14.6347 76.4171 14.783L80.1475 15.5885C81.7795 15.9276 83.0301 16.5635 83.9203 17.4961C84.8105 18.4287 85.2556 19.552 85.2556 20.8873C85.2556 22.1591 84.8952 23.3248 84.1534 24.3422C83.4116 25.3596 82.4154 26.1862 81.1225 26.7797C79.8719 27.3731 78.4306 27.6699 76.7986 27.6699Z" fill="white"/>
<path id="Vector_5" d="M86.2729 27.2671L91.7626 1.47224L97.888 0.179321L94.4968 16.0971L103.335 7.76728H110.457L99.5413 17.5808L106.875 27.2671H99.838L93.9033 18.8949L92.1441 27.2671H86.2729Z" fill="white"/>
<path id="Vector_6" d="M109.693 35.1519C109.079 35.1519 108.507 35.1095 107.955 35.0459C107.404 34.9823 106.896 34.8763 106.408 34.7491L107.468 29.7046C107.722 29.7682 107.998 29.8318 108.295 29.8742C108.591 29.9166 108.952 29.9378 109.354 29.9378C110.245 29.9378 111.029 29.747 111.707 29.3867C112.385 29.0264 112.979 28.4329 113.445 27.6487L113.657 27.2884L110.457 7.78857H116.688L118.384 20.5482L126.12 7.78857H132.5L118.977 29.3231C117.684 31.4215 116.306 32.9051 114.844 33.8165C113.403 34.7068 111.686 35.1519 109.693 35.1519Z" fill="white"/>
</g>
</svg>
