<svg width="73" height="16" viewBox="0 0 73 16" fill="none" xmlns="http://www.w3.org/2000/svg">
<g clip-path="url(#clip0_364_3574)">
<path d="M12.6465 5.2949L9.79951 0.0843506H13.928L16.7444 5.24119L10.3367 15.9616L6.4537 15.9999L12.6465 5.2949Z" fill="white"/>
<path d="M6.19281 5.2949L3.3458 0.0843506H7.47434L10.2906 5.24119L3.8753 15.9616L0 15.9999L6.19281 5.2949Z" fill="white"/>
<path d="M19.0542 5.2259L16.1995 0H20.3127L22.8297 4.84988L20.3127 9.55396L16.4297 9.56163L19.0542 5.2259Z" fill="white"/>
<path d="M24.61 9.90696L26.5976 0.567871H30.9487C31.5395 0.567871 32.046 0.682979 32.4911 0.920869C32.9285 1.15876 33.2738 1.48106 33.5271 1.89545C33.7726 2.30984 33.9031 2.78562 33.9031 3.33046C33.9031 3.92902 33.7419 4.46619 33.4273 4.95732C33.1127 5.44845 32.6829 5.83214 32.1535 6.12375C31.6163 6.41535 31.0254 6.56116 30.3654 6.56116H27.5645L26.8585 9.90696H24.61ZM27.9712 4.66571H30.3194C30.565 4.66571 30.7875 4.612 30.9794 4.51224C31.1712 4.41247 31.3247 4.27435 31.4321 4.09785C31.5395 3.92135 31.6009 3.7295 31.6009 3.51463C31.6009 3.21535 31.5088 2.96979 31.317 2.79329C31.1252 2.61679 30.8719 2.52471 30.5496 2.52471H28.4316L27.9712 4.66571Z" fill="white"/>
<path d="M35.8906 9.97606C35.1616 9.97606 34.5784 9.79956 34.1486 9.43889C33.7189 9.08589 33.504 8.61011 33.504 8.01155C33.504 7.52042 33.6268 7.10603 33.8647 6.76071C34.1026 6.41539 34.4479 6.1468 34.9007 5.96263C35.3534 5.77846 35.8829 5.6787 36.5122 5.6787C36.8115 5.6787 37.1184 5.70172 37.4254 5.75543C37.7323 5.80148 38.0316 5.87054 38.3155 5.96263L38.3539 5.76311C38.446 5.34872 38.3769 5.03409 38.1467 4.81922C37.9165 4.61203 37.5405 4.5046 37.0033 4.5046C36.7654 4.5046 36.4892 4.53529 36.1822 4.60436C35.8753 4.67342 35.4992 4.78085 35.0541 4.93433L34.5477 3.33049C35.0925 3.1233 35.6067 2.9775 36.0978 2.87774C36.5889 2.77798 37.0494 2.73193 37.4868 2.73193C38.2311 2.73193 38.8527 2.85472 39.3362 3.09261C39.8196 3.33049 40.1649 3.67582 40.3568 4.12858C40.5486 4.58133 40.587 5.1185 40.4489 5.74776L39.5664 9.91467H37.4714L37.5482 9.53097C37.2719 9.69212 37.0033 9.80723 36.7347 9.8763C36.4585 9.93769 36.1822 9.97606 35.8906 9.97606ZM36.6503 8.47966C36.8652 8.47966 37.0647 8.45663 37.2642 8.40292C37.4561 8.35687 37.6479 8.28781 37.8244 8.19572L38.0239 7.27486C37.5788 7.12906 37.1414 7.05999 36.704 7.05999C36.3203 7.05999 36.0287 7.12906 35.8139 7.25951C35.6067 7.38997 35.4992 7.58181 35.4992 7.83505C35.4992 8.03457 35.599 8.18805 35.8062 8.30316C36.0134 8.41826 36.2896 8.47966 36.6503 8.47966Z" fill="white"/>
<path d="M41.2086 12.7617C40.9861 12.7617 40.7789 12.7463 40.5794 12.7233C40.3798 12.7003 40.1957 12.6619 40.0192 12.6159L40.4029 10.7895C40.4949 10.8125 40.5947 10.8356 40.7021 10.8509C40.8096 10.8662 40.94 10.8739 41.0858 10.8739C41.4081 10.8739 41.6921 10.8049 41.9376 10.6744C42.1832 10.5439 42.3981 10.3291 42.5669 10.0451L42.6436 9.91469L41.4849 2.85474H43.741L44.3549 7.4744L47.1559 2.85474H49.4657L44.5698 10.6514C44.1017 11.4111 43.6029 11.9483 43.0734 12.2782C42.5515 12.6005 41.93 12.7617 41.2086 12.7617Z" fill="white"/>
<path d="M52.2436 10.0527C51.5683 10.0527 50.9237 9.94527 50.3098 9.73808C49.6959 9.53089 49.1817 9.24695 48.775 8.89395L49.9491 7.50499C50.3482 7.81961 50.7395 8.04983 51.1156 8.20331C51.4916 8.35678 51.8753 8.43352 52.259 8.43352C52.5736 8.43352 52.8192 8.37981 53.0033 8.27237C53.1875 8.16494 53.2873 8.02681 53.2873 7.85798C53.2873 7.7352 53.2335 7.62777 53.1261 7.55103C53.0187 7.47429 52.8652 7.40523 52.658 7.36686L51.3074 7.07525C50.7319 6.95247 50.2868 6.71458 49.9721 6.37693C49.6575 6.0316 49.504 5.60954 49.504 5.10307C49.504 4.61194 49.6191 4.18988 49.8494 3.84455C50.0796 3.49156 50.4096 3.22297 50.847 3.03113C51.2767 2.83928 51.7909 2.74719 52.3894 2.74719C52.9803 2.74719 53.5405 2.83928 54.0853 3.03113C54.6302 3.2153 55.106 3.48388 55.5127 3.82153L54.3539 5.12609C54.0009 4.86518 53.6403 4.67333 53.2873 4.5352C52.9343 4.40475 52.5813 4.33568 52.2436 4.33568C51.975 4.33568 51.7678 4.38172 51.6144 4.46614C51.4609 4.55822 51.3841 4.68101 51.3841 4.84983C51.3841 4.98029 51.4379 5.09539 51.553 5.17981C51.6604 5.26422 51.8522 5.33328 52.1055 5.387L53.4561 5.67861C54.047 5.80139 54.4997 6.0316 54.822 6.36925C55.1443 6.7069 55.3055 7.11362 55.3055 7.59707C55.3055 8.0575 55.175 8.47957 54.9064 8.84791C54.6379 9.21626 54.2772 9.51554 53.8091 9.73041C53.3563 9.94527 52.8345 10.0527 52.2436 10.0527Z" fill="white"/>
<path d="M55.6738 9.90693L57.6614 0.567837L59.8791 0.0997314L58.6513 5.8628L61.8513 2.84697H64.4297L60.4777 6.39997L63.1328 9.90693H60.5851L58.4364 6.87575L57.7995 9.90693H55.6738Z" fill="white"/>
<path d="M64.1534 12.7617C63.9309 12.7617 63.7237 12.7463 63.5242 12.7233C63.3247 12.7003 63.1405 12.6619 62.964 12.6159L63.3477 10.7895C63.4398 10.8125 63.5395 10.8356 63.647 10.8509C63.7544 10.8662 63.8849 10.8739 64.0307 10.8739C64.353 10.8739 64.6369 10.8049 64.8825 10.6744C65.128 10.5439 65.3429 10.3291 65.5117 10.0451L65.5885 9.91469L64.4297 2.85474H66.6858L67.2997 7.4744L70.1007 2.85474H72.4105L67.5146 10.6514C67.0465 11.4111 66.5477 11.9483 66.0182 12.2782C65.4964 12.6005 64.8748 12.7617 64.1534 12.7617Z" fill="white"/>
</g>
<defs>
<clipPath id="clip0_364_3574">
<rect width="72.4105" height="16" fill="white"/>
</clipPath>
</defs>
</svg>
