<svg width="12" height="12" viewBox="0 0 12 12" fill="none" xmlns="http://www.w3.org/2000/svg">
<path fill-rule="evenodd" clip-rule="evenodd" d="M5.5 0.625C2.80761 0.625 0.625 2.80761 0.625 5.5C0.625 8.19239 2.80761 10.375 5.5 10.375C6.71121 10.375 7.81925 9.93329 8.67183 9.20216L10.7348 11.2652C10.8813 11.4116 11.1187 11.4116 11.2652 11.2652C11.4116 11.1187 11.4116 10.8813 11.2652 10.7348L9.20216 8.67183C9.93329 7.81925 10.375 6.71121 10.375 5.5C10.375 2.80761 8.19239 0.625 5.5 0.625ZM1.375 5.5C1.375 3.22183 3.22183 1.375 5.5 1.375C7.77817 1.375 9.625 3.22183 9.625 5.5C9.625 7.77817 7.77817 9.625 5.5 9.625C3.22183 9.625 1.375 7.77817 1.375 5.5Z" fill="#0F172A"/>
</svg>
