<svg width="73" height="16" viewBox="0 0 73 16" fill="none" xmlns="http://www.w3.org/2000/svg">
<g clip-path="url(#clip0_344_964)">
<path d="M12.6465 5.29496L9.79954 0.0844116H13.9281L16.7444 5.24125L10.3367 15.9616L6.45374 16L12.6465 5.29496Z" fill="#020617"/>
<path d="M6.19281 5.29496L3.3458 0.0844116H7.47434L10.2906 5.24125L3.8753 15.9616L0 16L6.19281 5.29496Z" fill="#020617"/>
<path d="M19.0542 5.2259L16.1995 0H20.3127L22.8297 4.84988L20.3127 9.55396L16.4297 9.56163L19.0542 5.2259Z" fill="#020617"/>
<path d="M24.61 9.90702L26.5975 0.567932H30.9486C31.5395 0.567932 32.046 0.68304 32.491 0.92093C32.9284 1.15882 33.2738 1.48112 33.527 1.89551C33.7726 2.3099 33.903 2.78568 33.903 3.33052C33.903 3.92908 33.7419 4.46625 33.4273 4.95738C33.1126 5.44851 32.6829 5.8322 32.1534 6.12381C31.6162 6.41541 31.0253 6.56122 30.3654 6.56122H27.5644L26.8584 9.90702H24.61ZM27.9711 4.66577H30.3193C30.5649 4.66577 30.7874 4.61206 30.9793 4.5123C31.1711 4.41254 31.3246 4.27441 31.432 4.09791C31.5395 3.92141 31.6009 3.72956 31.6009 3.51469C31.6009 3.21541 31.5088 2.96985 31.3169 2.79335C31.1251 2.61685 30.8719 2.52477 30.5496 2.52477H28.4316L27.9711 4.66577Z" fill="#020617"/>
<path d="M35.8906 9.97606C35.1616 9.97606 34.5784 9.79956 34.1486 9.43889C33.7189 9.08589 33.504 8.61011 33.504 8.01155C33.504 7.52042 33.6268 7.10603 33.8647 6.76071C34.1026 6.41539 34.4479 6.1468 34.9007 5.96263C35.3534 5.77846 35.8829 5.6787 36.5122 5.6787C36.8115 5.6787 37.1184 5.70172 37.4254 5.75543C37.7323 5.80148 38.0316 5.87054 38.3155 5.96263L38.3539 5.76311C38.446 5.34872 38.3769 5.03409 38.1467 4.81922C37.9165 4.61203 37.5405 4.5046 37.0033 4.5046C36.7654 4.5046 36.4892 4.53529 36.1822 4.60436C35.8753 4.67342 35.4992 4.78085 35.0541 4.93433L34.5477 3.33049C35.0925 3.1233 35.6067 2.9775 36.0978 2.87774C36.5889 2.77798 37.0494 2.73193 37.4868 2.73193C38.2311 2.73193 38.8527 2.85472 39.3362 3.09261C39.8196 3.33049 40.1649 3.67582 40.3568 4.12858C40.5486 4.58133 40.587 5.1185 40.4489 5.74776L39.5664 9.91467H37.4714L37.5482 9.53097C37.2719 9.69212 37.0033 9.80723 36.7347 9.8763C36.4585 9.93769 36.1822 9.97606 35.8906 9.97606ZM36.6503 8.47966C36.8652 8.47966 37.0647 8.45663 37.2642 8.40292C37.4561 8.35687 37.6479 8.28781 37.8244 8.19572L38.0239 7.27486C37.5788 7.12906 37.1414 7.05999 36.704 7.05999C36.3203 7.05999 36.0287 7.12906 35.8139 7.25951C35.6067 7.38997 35.4992 7.58181 35.4992 7.83505C35.4992 8.03457 35.599 8.18805 35.8062 8.30316C36.0134 8.41826 36.2896 8.47966 36.6503 8.47966Z" fill="#020617"/>
<path d="M41.2086 12.7617C40.986 12.7617 40.7788 12.7463 40.5793 12.7233C40.3798 12.7003 40.1956 12.6619 40.0191 12.6159L40.4028 10.7895C40.4949 10.8125 40.5946 10.8356 40.7021 10.8509C40.8095 10.8662 40.94 10.8739 41.0858 10.8739C41.4081 10.8739 41.692 10.8049 41.9376 10.6744C42.1831 10.5439 42.398 10.3291 42.5668 10.0451L42.6436 9.91469L41.4848 2.85474H43.7409L44.3548 7.4744L47.1558 2.85474H49.4656L44.5697 10.6514C44.1016 11.4111 43.6028 11.9483 43.0733 12.2782C42.5515 12.6005 41.9299 12.7617 41.2086 12.7617Z" fill="#020617"/>
<path d="M52.2435 10.0528C51.5682 10.0528 50.9236 9.9454 50.3097 9.7382C49.6958 9.53101 49.1817 9.24707 48.775 8.89408L49.9491 7.50511C50.3481 7.81974 50.7395 8.04995 51.1155 8.20343C51.4915 8.35691 51.8752 8.43365 52.2589 8.43365C52.5735 8.43365 52.8191 8.37993 53.0033 8.27249C53.1874 8.16506 53.2872 8.02693 53.2872 7.85811C53.2872 7.73532 53.2335 7.62789 53.126 7.55115C53.0186 7.47441 52.8651 7.40535 52.6579 7.36698L51.3073 7.07537C50.7318 6.95259 50.2867 6.7147 49.9721 6.37705C49.6575 6.03173 49.504 5.60966 49.504 5.10319C49.504 4.61206 49.6191 4.19 49.8493 3.84468C50.0795 3.49168 50.4095 3.22309 50.8469 3.03125C51.2766 2.8394 51.7908 2.74731 52.3894 2.74731C52.9802 2.74731 53.5404 2.8394 54.0853 3.03125C54.6301 3.21542 55.1059 3.48401 55.5126 3.82165L54.3539 5.12621C54.0009 4.8653 53.6402 4.67345 53.2872 4.53532C52.9342 4.40487 52.5812 4.3358 52.2435 4.3358C51.975 4.3358 51.7678 4.38185 51.6143 4.46626C51.4608 4.55835 51.3841 4.68113 51.3841 4.84995C51.3841 4.98041 51.4378 5.09552 51.5529 5.17993C51.6603 5.26434 51.8522 5.33341 52.1054 5.38712L53.456 5.67873C54.0469 5.80151 54.4997 6.03173 54.822 6.36938C55.1443 6.70703 55.3054 7.11374 55.3054 7.59719C55.3054 8.05763 55.175 8.47969 54.9064 8.84803C54.6378 9.21638 54.2771 9.51566 53.809 9.73053C53.3563 9.9454 52.8344 10.0528 52.2435 10.0528Z" fill="#020617"/>
<path d="M55.6738 9.90705L57.6613 0.567959L59.879 0.0998535L58.6512 5.86292L61.8512 2.8471H64.4296L60.4776 6.40009L63.1328 9.90705H60.585L58.4364 6.87587L57.7994 9.90705H55.6738Z" fill="#020617"/>
<path d="M64.1534 12.7617C63.9309 12.7617 63.7237 12.7463 63.5242 12.7233C63.3247 12.7003 63.1405 12.6619 62.964 12.6159L63.3477 10.7895C63.4398 10.8125 63.5395 10.8356 63.647 10.8509C63.7544 10.8662 63.8849 10.8739 64.0307 10.8739C64.353 10.8739 64.6369 10.8049 64.8825 10.6744C65.128 10.5439 65.3429 10.3291 65.5117 10.0451L65.5885 9.91469L64.4297 2.85474H66.6858L67.2997 7.4744L70.1007 2.85474H72.4105L67.5146 10.6514C67.0465 11.4111 66.5477 11.9483 66.0182 12.2782C65.4964 12.6005 64.8748 12.7617 64.1534 12.7617Z" fill="#020617"/>
</g>
<defs>
<clipPath id="clip0_344_964">
<rect width="72.4105" height="16" fill="white"/>
</clipPath>
</defs>
</svg>
